<svg width="26" height="26" viewBox="0 0 26 26" fill="none" xmlns="http://www.w3.org/2000/svg">
<g clip-path="url(#clip0_209_1715)">
<path fill-rule="evenodd" clip-rule="evenodd" d="M13 0C5.82969 0 0 5.82969 0 13C0 20.1703 5.82969 26 13 26C20.1703 26 26 20.1703 26 13C26 5.82969 20.1703 0 13 0ZM22.7703 6.175L16.1484 1.82812L16.0063 1.48281C18.7891 2.19375 21.1656 3.87969 22.7703 6.175ZM13.1828 4.36719L15.3766 2.64062L21.7953 6.90625L20.8813 10.1562L16.8188 11.1312L13.1828 8.73438V4.36719ZM12.0453 4.55V8.63281L8.99844 11.0094L4.73281 9.83125L3.75781 7.21094L9.5875 2.925L12.0453 4.55ZM8.79531 1.84844L8.71406 2.17344L3.33125 6.11406L3.31094 6.05312C4.67188 4.16406 6.58125 2.68125 8.79531 1.84844ZM3.33125 19.9469C1.95 18.0375 1.1375 15.7219 1.09688 13.2031L1.23906 13.3047L3.37188 19.7641L3.33125 19.9469ZM4.3875 19.3578L2.1125 12.5938L4.26562 10.8875L8.42969 12.025L9.77031 15.6406L7.41406 19.2156L4.3875 19.3578ZM13 24.9234C11.5984 24.9234 10.2578 24.6797 9.01875 24.2328L9.2625 24.05L16.4328 24.3141L16.5141 24.375C15.4172 24.7406 14.2188 24.9234 13 24.9234ZM16.0875 23.075L9.54688 22.8313L8.40938 19.7844L10.5219 16.5953L14.4422 16.4328L16.9 20.15L16.0875 23.075ZM17.7531 19.3578L15.6 16.1078L16.6562 12.35L21.5516 11.1719L23.9688 12.7562L20.9422 19.2359L17.7531 19.3578ZM21.9781 19.6219L24.9031 13.3859C24.8219 16.0672 23.8469 18.5047 22.2828 20.4547L21.9781 19.6219Z" fill="#7C8194"/>
</g>
<defs>
<clipPath id="clip0_209_1715">
<rect width="26" height="26" fill="white"/>
</clipPath>
</defs>
</svg>
