<svg width="218" height="53" viewBox="0 0 218 53" fill="none" xmlns="http://www.w3.org/2000/svg">
<g clip-path="url(#clip0_62_4006)">
<path d="M20.3558 16.7428H13.628C11.7574 16.7428 10.8086 16.0392 10.8086 14.6533C10.8086 13.5253 11.2992 12.1878 13.628 12.1878H29.4987V3.14771H11.0081C3.60108 3.14771 0 6.41891 0 13.144V16.1627C0 22.8877 3.60108 26.159 11.0081 26.159H17.7358C19.5795 26.159 20.5553 27.1419 20.5553 29.0004C20.5553 30.1284 20.0701 31.4659 17.7358 31.4659H0V40.5061H20.3558C27.7628 40.5061 31.3639 37.2349 31.3639 30.5098V27.4911C31.3639 20.2557 27.7628 16.7428 20.3558 16.7428Z" fill="white"/>
<path d="M60.8409 5.69378C59.0511 3.91583 56.3342 3.01343 52.7546 3.01343H36.5552V40.6994H44.5498V27.1957H52.7546C56.3342 27.1957 59.0511 26.2932 60.8409 24.5099C62.6253 22.732 63.5309 20.0194 63.5309 16.4528V13.7509C63.5309 10.1843 62.6253 7.47709 60.8409 5.69378ZM55.5309 16.4528C55.5309 18.2898 54.5983 19.2244 52.7546 19.2244H44.5498V10.9846H52.7546C54.5983 10.9846 55.5309 11.9139 55.5309 13.7509V16.4528Z" fill="white"/>
<path d="M92.5499 40.7048H67.7791V2.9436H79.3909V26.6155C79.3909 27.577 79.3747 28.1142 79.337 28.2162C79.3047 28.3183 79.0082 28.6083 78.4583 29.0918L71.5958 35.4354H92.5499V40.7048Z" fill="white"/>
<path d="M168.658 16.9093H161.93C160.059 16.9093 159.116 16.211 159.116 14.8306C159.116 13.7079 159.601 12.3758 161.93 12.3758H177.8V3.37866H159.315C151.908 3.37866 148.302 6.63376 148.302 13.3266V16.3346C148.302 23.0274 151.908 26.2825 159.315 26.2825H166.043C167.887 26.2825 168.862 27.2601 168.862 29.1132C168.862 30.2359 168.372 31.5734 166.043 31.5734H148.302V40.5651H168.658C176.07 40.5651 179.671 37.3101 179.671 30.6172V27.6092C179.671 20.4115 176.07 16.9093 168.658 16.9093Z" fill="white"/>
<path d="M218 40.7693H206.442V29.4893C206.442 28.6298 206.426 28.1518 206.388 28.0658C206.356 27.9799 206.027 27.6791 205.407 27.1581L196.582 19.2406V40.7693H184.97V2.9436H196.582V18.4671H206.442V2.9436H218V40.7693Z" fill="white"/>
<path d="M143.596 40.78C140.307 40.78 137.208 40.7961 134.108 40.7532C133.854 40.7478 133.536 40.3718 133.375 40.0925C131.143 36.2787 128.933 32.4543 126.717 28.6298C126.539 28.3236 126.356 28.0175 126.07 27.5394C124.9 29.0273 123.817 30.397 122.593 31.9494C124.518 32.0622 126.216 32.1642 128.129 32.277C121.606 39.2921 115.229 46.1461 108.852 53.0054C108.787 52.9678 108.722 52.9248 108.663 52.8872C111.52 47.7844 114.383 42.6869 117.348 37.3906C115.019 37.251 112.873 37.1167 110.55 36.977C115.779 28.2162 120.938 19.5682 126.199 10.759C132.032 20.809 137.774 30.7193 143.596 40.78Z" fill="white"/>
<path d="M119.957 0C121.596 2.82538 123.148 5.46813 124.641 8.13773C124.782 8.38482 124.631 8.89511 124.458 9.19054C120.879 15.3892 117.272 21.5663 113.676 27.7542C111.31 31.8312 108.938 35.9081 106.598 40.0065C106.28 40.5597 105.941 40.7746 105.288 40.7639C102.383 40.7209 99.4716 40.7477 96.3611 40.7477C104.242 27.1419 112.048 13.6596 119.957 0Z" fill="white"/>
</g>
<defs>
<clipPath id="clip0_62_4006">
<rect width="218" height="53" fill="white"/>
</clipPath>
</defs>
</svg>
