<svg width="146" height="35" viewBox="0 0 146 35" fill="none" xmlns="http://www.w3.org/2000/svg">
<g clip-path="url(#clip0_209_832)">
<path d="M13.6328 11.0565H9.12703C7.87423 11.0565 7.2388 10.5919 7.2388 9.6767C7.2388 8.93179 7.56735 8.04854 9.12703 8.04854H19.756V2.07864H7.37239C2.41173 2.07864 0 4.23887 0 8.67994V10.6735C0 15.1145 2.41173 17.2748 7.37239 17.2748H11.8781C13.1129 17.2748 13.7664 17.9239 13.7664 19.1512C13.7664 19.8961 13.4414 20.7794 11.8781 20.7794H0V26.7493H13.6328C18.5934 26.7493 21.0052 24.589 21.0052 20.148V18.1545C21.0052 13.3764 18.5934 11.0565 13.6328 11.0565Z" fill="#143CDA"/>
<path d="M40.7467 3.76C39.548 2.58589 37.7284 1.98996 35.3311 1.98996H24.4819V26.877H29.8361V17.9594H35.3311C37.7284 17.9594 39.548 17.3634 40.7467 16.1858C41.9417 15.0116 42.5483 13.2203 42.5483 10.865V9.08077C42.5483 6.72544 41.9417 4.93766 40.7467 3.76ZM37.1905 10.865C37.1905 12.0781 36.5659 12.6953 35.3311 12.6953H29.8361V7.25397H35.3311C36.5659 7.25397 37.1905 7.86763 37.1905 9.08077V10.865Z" fill="#143CDA"/>
<path d="M61.983 26.8805H45.3933V1.94385H53.1701V17.5763C53.1701 18.2112 53.1592 18.5659 53.134 18.6333C53.1123 18.7007 52.9137 18.8923 52.5455 19.2115L47.9495 23.4007H61.983V26.8805Z" fill="#143CDA"/>
<path d="M112.954 11.1665H108.449C107.196 11.1665 106.564 10.7054 106.564 9.79375C106.564 9.05239 106.889 8.17269 108.449 8.17269H119.078V2.23117H106.698C101.737 2.23117 99.3215 4.38076 99.3215 8.80054V10.787C99.3215 15.2067 101.737 17.3563 106.698 17.3563H111.203C112.438 17.3563 113.092 18.0019 113.092 19.2257C113.092 19.9671 112.763 20.8503 111.203 20.8503H99.3215V26.7883H112.954C117.919 26.7883 120.33 24.6387 120.33 20.2189V18.2325C120.33 13.4793 117.919 11.1665 112.954 11.1665Z" fill="#143CDA"/>
<path d="M146 26.9231H138.259V19.474C138.259 18.9065 138.248 18.5908 138.223 18.534C138.202 18.4772 137.981 18.2786 137.566 17.9345L131.656 12.706V26.9231H123.879V1.94385H131.656V12.1952H138.259V1.94385H146V26.9231Z" fill="#143CDA"/>
<path d="M96.1694 26.9302C93.9671 26.9302 91.8911 26.9408 89.8151 26.9125C89.6455 26.9089 89.4324 26.6606 89.3241 26.4761C87.8294 23.9577 86.3492 21.4321 84.8653 18.9065C84.7462 18.7043 84.6234 18.5021 84.4321 18.1864C83.6486 19.169 82.9229 20.0735 82.1034 21.0986C83.3923 21.1731 84.5295 21.2405 85.8112 21.315C81.4427 25.9476 77.1716 30.4738 72.9005 35.0036C72.8572 34.9787 72.8139 34.9504 72.7742 34.9255C74.6877 31.5557 76.6048 28.1894 78.5905 24.6919C77.0308 24.5997 75.5939 24.511 74.0378 24.4188C77.5399 18.6333 80.995 12.9224 84.5187 7.10501C88.4251 13.7418 92.2702 20.2863 96.1694 26.9302Z" fill="#143CDA"/>
<path d="M80.338 0C81.4356 1.86582 82.4754 3.61103 83.4754 5.37397C83.5693 5.53714 83.4682 5.87413 83.3527 6.06922C80.9554 10.1627 78.54 14.2419 76.1319 18.3283C74.547 21.0206 72.9584 23.7129 71.3915 26.4194C71.1785 26.7847 70.951 26.9266 70.5142 26.9195C68.5682 26.8912 66.6186 26.9089 64.5354 26.9089C69.8138 17.9239 75.0416 9.02047 80.338 0Z" fill="#143CDA"/>
</g>
<defs>
<clipPath id="clip0_209_832">
<rect width="146" height="35" fill="white"/>
</clipPath>
</defs>
</svg>
