<svg width="33" height="32" viewBox="0 0 33 32" fill="none" xmlns="http://www.w3.org/2000/svg">
<path d="M0 16C0 7.16344 7.3873 0 16.5 0C25.6127 0 33 7.16344 33 16C33 24.8366 25.6127 32 16.5 32C7.3873 32 0 24.8366 0 16Z" fill="#FF0000"/>
<path d="M24.9321 12.0488C24.7297 11.2948 24.1334 10.701 23.376 10.4995C22.0036 10.1333 16.5 10.1333 16.5 10.1333C16.5 10.1333 10.9963 10.1333 9.62375 10.4995C8.86645 10.701 8.27005 11.2948 8.06765 12.0488C7.69995 13.4153 7.69995 16.2666 7.69995 16.2666C7.69995 16.2666 7.69995 19.1178 8.06765 20.4845C8.27005 21.2385 8.86645 21.8322 9.62375 22.0338C10.9963 22.4 16.5 22.4 16.5 22.4C16.5 22.4 22.0036 22.4 23.376 22.0338C24.1334 21.8322 24.7297 21.2385 24.9321 20.4845C25.2999 19.1178 25.2999 16.2666 25.2999 16.2666C25.2999 16.2666 25.2999 13.4153 24.9321 12.0488Z" fill="white"/>
<path d="M14.85 19.2V13.8667L19.25 16.5335L14.85 19.2Z" fill="#FF0000"/>
</svg>
