<svg width="24" height="24" viewBox="0 0 24 24" fill="none" xmlns="http://www.w3.org/2000/svg">
<g clip-path="url(#clip0_62_3893)">
<g clip-path="url(#clip1_62_3893)">
<path d="M12 15.0469C13.6827 15.0469 15.0469 13.6827 15.0469 12C15.0469 10.3173 13.6827 8.95312 12 8.95312C10.3173 8.95312 8.95312 10.3173 8.95312 12C8.95312 13.6827 10.3173 15.0469 12 15.0469Z" fill="#143CDA"/>
<path d="M20.7188 9.1875V14.8125C20.7188 14.8747 20.7434 14.9343 20.7874 14.9782C20.8314 15.0222 20.891 15.0469 20.9531 15.0469H24V8.95312H20.9531C20.891 8.95312 20.8314 8.97782 20.7874 9.02177C20.7434 9.06573 20.7188 9.12534 20.7188 9.1875ZM11.2969 16.3973C10.2509 16.2302 9.29873 15.6957 8.61135 14.8898C7.92397 14.0838 7.54638 13.0593 7.54638 12C7.54638 10.9407 7.92397 9.91618 8.61135 9.11024C9.29873 8.30431 10.2509 7.76979 11.2969 7.60266V2.85938H1.64062C1.2055 2.85938 0.788205 3.03223 0.480528 3.3399C0.172851 3.64758 0 4.06488 0 4.5L0 7.54688H3.04688C3.26233 7.54688 3.47567 7.58931 3.67472 7.67176C3.87376 7.75421 4.05463 7.87506 4.20697 8.0274C4.35932 8.17975 4.48017 8.36061 4.56261 8.55966C4.64506 8.75871 4.6875 8.97205 4.6875 9.1875V14.8125C4.6875 15.028 4.64506 15.2413 4.56261 15.4403C4.48017 15.6394 4.35932 15.8203 4.20697 15.9726C4.05463 16.1249 3.87376 16.2458 3.67472 16.3282C3.47567 16.4107 3.26233 16.4531 3.04688 16.4531H0V19.5C0 19.9351 0.172851 20.3524 0.480528 20.6601C0.788205 20.9678 1.2055 21.1406 1.64062 21.1406H11.2969V16.3973Z" fill="#143CDA"/>
<path d="M20.9531 16.4531C20.518 16.4531 20.1007 16.2803 19.793 15.9726C19.4853 15.6649 19.3125 15.2476 19.3125 14.8125V9.1875C19.3125 8.75238 19.4853 8.33508 19.793 8.0274C20.1007 7.71973 20.518 7.54688 20.9531 7.54688H24V4.5C24 4.06488 23.8272 3.64758 23.5195 3.3399C23.2118 3.03223 22.7945 2.85938 22.3594 2.85938H12.7031V7.60266C13.7491 7.76979 14.7013 8.30431 15.3887 9.11024C16.076 9.91618 16.4536 10.9407 16.4536 12C16.4536 13.0593 16.076 14.0838 15.3887 14.8898C14.7013 15.6957 13.7491 16.2302 12.7031 16.3973V21.1406H22.3594C22.7945 21.1406 23.2118 20.9678 23.5195 20.6601C23.8272 20.3524 24 19.9351 24 19.5V16.4531H20.9531ZM3.28125 14.8125V9.1875C3.28125 9.12534 3.25656 9.06573 3.2126 9.02177C3.16865 8.97782 3.10904 8.95312 3.04688 8.95312H0V15.0469H3.04688C3.10904 15.0469 3.16865 15.0222 3.2126 14.9782C3.25656 14.9343 3.28125 14.8747 3.28125 14.8125Z" fill="#143CDA"/>
</g>
</g>
<defs>
<clipPath id="clip0_62_3893">
<rect width="24" height="24" fill="white"/>
</clipPath>
<clipPath id="clip1_62_3893">
<rect width="24" height="24" fill="white"/>
</clipPath>
</defs>
</svg>
