<svg width="24" height="24" viewBox="0 0 24 24" fill="none" xmlns="http://www.w3.org/2000/svg">
<g clip-path="url(#clip0_62_3820)">
<g clip-path="url(#clip1_62_3820)">
<path d="M1.64062 2.85938H22.3594C22.7945 2.85938 23.2118 3.03223 23.5195 3.3399C23.8271 3.64758 24 4.06488 24 4.5V19.5C24 19.9351 23.8271 20.3524 23.5195 20.6601C23.2118 20.9678 22.7945 21.1406 22.3594 21.1406H1.64062C1.2055 21.1406 0.788204 20.9678 0.480528 20.6601C0.17285 20.3524 0 19.9351 0 19.5V4.5C0 4.06488 0.17285 3.64758 0.480528 3.3399C0.788204 3.03223 1.2055 2.85938 1.64062 2.85938ZM12 15.0469C12.6026 15.0469 13.1917 14.8682 13.6928 14.5334C14.1938 14.1986 14.5843 13.7227 14.8149 13.166C15.0456 12.6092 15.1059 11.9966 14.9883 11.4056C14.8708 10.8145 14.5806 10.2716 14.1545 9.84553C13.7284 9.41942 13.1855 9.12923 12.5944 9.01167C12.0034 8.89411 11.3908 8.95444 10.834 9.18505C10.2773 9.41567 9.80141 9.80619 9.46662 10.3072C9.13182 10.8083 8.95312 11.3974 8.95312 12C8.95412 12.8078 9.27544 13.5822 9.84663 14.1534C10.4178 14.7246 11.1922 15.0459 12 15.0469ZM22.5938 8.95312H20.0156C19.9535 8.95312 19.8939 8.97782 19.8499 9.02177C19.8059 9.06573 19.7812 9.12534 19.7812 9.1875V14.8125C19.7812 14.8747 19.8059 14.9343 19.8499 14.9782C19.8939 15.0222 19.9535 15.0469 20.0156 15.0469H22.5938V8.95312ZM22.5938 19.5V16.4531H20.0156C19.5805 16.4531 19.1632 16.2803 18.8555 15.9726C18.5479 15.6649 18.375 15.2476 18.375 14.8125V9.1875C18.375 8.75238 18.5479 8.33508 18.8555 8.0274C19.1632 7.71973 19.5805 7.54688 20.0156 7.54688H22.5938V4.5C22.5938 4.43784 22.5691 4.37823 22.5251 4.33427C22.4811 4.29032 22.4215 4.26562 22.3594 4.26562H12.7031V7.60266C13.7491 7.76979 14.7013 8.30431 15.3887 9.11024C16.076 9.91618 16.4536 10.9407 16.4536 12C16.4536 13.0593 16.076 14.0838 15.3887 14.8898C14.7013 15.6957 13.7491 16.2302 12.7031 16.3973V19.7344H22.3594C22.4215 19.7344 22.4811 19.7097 22.5251 19.6657C22.5691 19.6218 22.5938 19.5622 22.5938 19.5ZM1.64062 19.7344H11.2969V16.3973C10.2509 16.2302 9.29873 15.6957 8.61135 14.8898C7.92397 14.0838 7.54638 13.0593 7.54638 12C7.54638 10.9407 7.92397 9.91618 8.61135 9.11024C9.29873 8.30431 10.2509 7.76979 11.2969 7.60266V4.26562H1.64062C1.57846 4.26562 1.51885 4.29032 1.4749 4.33427C1.43094 4.37823 1.40625 4.43784 1.40625 4.5V7.54688H3.98438C4.4195 7.54688 4.8368 7.71973 5.14447 8.0274C5.45215 8.33508 5.625 8.75238 5.625 9.1875V14.8125C5.625 15.2476 5.45215 15.6649 5.14447 15.9726C4.8368 16.2803 4.4195 16.4531 3.98438 16.4531H1.40625V19.5C1.40625 19.5622 1.43094 19.6218 1.4749 19.6657C1.51885 19.7097 1.57846 19.7344 1.64062 19.7344ZM1.40625 8.95312V15.0469H3.98438C4.04654 15.0469 4.10615 15.0222 4.1501 14.9782C4.19406 14.9343 4.21875 14.8747 4.21875 14.8125V9.1875C4.21875 9.12534 4.19406 9.06573 4.1501 9.02177C4.10615 8.97782 4.04654 8.95312 3.98438 8.95312H1.40625Z" fill="#979797"/>
</g>
</g>
<defs>
<clipPath id="clip0_62_3820">
<rect width="24" height="24" fill="white"/>
</clipPath>
<clipPath id="clip1_62_3820">
<rect width="24" height="24" fill="white" transform="matrix(-1 0 0 1 24 0)"/>
</clipPath>
</defs>
</svg>
