<svg width="26" height="26" viewBox="0 0 26 26" fill="none" xmlns="http://www.w3.org/2000/svg">
<path d="M4.2637 3.87969L6.2737 6.9875L6.92339 6.76406L6.37521 3.14844L4.2637 3.87969ZM8.9943 3.29063L7.87763 6.80469L8.46642 7.15L10.9028 4.42812L8.9943 3.29063ZM1.72583 8.04375L5.40067 8.40938L5.624 7.75938L2.45674 5.93125L1.72583 8.04375Z" fill="white"/>
<path fill-rule="evenodd" clip-rule="evenodd" d="M24.8915 10.2172L17.3185 13.7313V13.7109C16.3846 9.72969 12.4052 7.25156 8.42578 8.16563L23.5718 4.59063C24.3433 4.40781 25.0945 4.89531 25.2976 5.66719L25.9676 8.49063C26.13 9.2625 25.663 10.0344 24.8915 10.2172Z" fill="url(#paint0_linear_209_1998)"/>
<path d="M17.3387 13.7109C16.4048 9.70937 12.3848 7.23125 8.40541 8.16562C4.73057 9.03906 2.35512 12.4719 2.72058 16.1281C2.39573 16.0469 2.05058 16.0266 1.68512 16.1281C0.527855 16.4125 -0.203053 17.5703 0.081189 18.7484C0.365431 19.9062 1.5227 20.6375 2.67997 20.3734C3.18754 20.2516 3.63421 19.9469 3.91845 19.5609C5.5833 22.0797 8.70996 23.4203 11.8163 22.6891C15.7957 21.7141 18.2727 17.7125 17.3387 13.7109ZM2.41603 19.2969C1.82725 19.4391 1.25876 19.0734 1.11664 18.4844C0.97452 17.8953 1.33997 17.3062 1.92876 17.1844C2.51755 17.0422 3.08603 17.4078 3.22815 17.9969C3.37027 18.5656 3.00482 19.1547 2.41603 19.2969ZM11.3087 20.5562C8.48662 21.2266 5.64421 19.4594 4.97421 16.6359C4.30421 13.7922 6.05026 10.9687 8.89268 10.2984C11.7148 9.60781 14.5572 11.375 15.2272 14.1984C15.8972 17.0422 14.1309 19.8859 11.3087 20.5562ZM9.0348 10.8875C6.53754 11.4766 4.99451 13.975 5.5833 16.4734C6.17208 18.9719 8.66935 20.5359 11.1666 19.9469C13.6639 19.3578 15.2069 16.8594 14.6181 14.3609C14.0293 11.8422 11.5321 10.2984 9.0348 10.8875Z" fill="url(#paint1_linear_209_1998)"/>
<defs>
<linearGradient id="paint0_linear_209_1998" x1="26" y1="6.50001" x2="17" y2="13" gradientUnits="userSpaceOnUse">
<stop offset="0.102" stop-color="#FFBF1C"/>
<stop offset="1" stop-color="#FB983E"/>
</linearGradient>
<linearGradient id="paint1_linear_209_1998" x1="8.77775" y1="7.9686" x2="8.77775" y2="22.8878" gradientUnits="userSpaceOnUse">
<stop stop-color="#F1AD28"/>
<stop offset="1" stop-color="#FBE51F"/>
</linearGradient>
</defs>
</svg>
