<svg width="26" height="26" viewBox="0 0 26 26" fill="none" xmlns="http://www.w3.org/2000/svg">
<rect y="5" width="26" height="16" fill="#1E9722"/>
<path d="M0 9.54688H3.87787V16.4531H0V17.2859H4.68999V8.71407H0V9.54688ZM25.9878 9.54688V8.71407H21.2978V17.2859H25.9878V16.4531H22.1099V9.54688H25.9878Z" fill="white"/>
<path d="M25.1554 4.57031H0.832422C0.365454 4.57031 0 4.93594 0 5.40312V20.6172C0 21.0844 0.365454 21.45 0.832422 21.45H25.1554C25.6224 21.45 25.9878 21.0844 25.9878 20.6172V5.40312C25.9878 4.93594 25.6224 4.57031 25.1554 4.57031ZM1.3806 20.5969C1.07606 20.5969 0.832422 20.3531 0.832422 20.0484V5.95156C0.832422 5.64687 1.07606 5.40312 1.3806 5.40312H12.7097V9.01875C10.5576 9.14062 8.8521 10.9484 8.8521 13.1422C8.8521 15.3359 10.5576 17.1437 12.73 17.2859V20.6172H1.3806V20.5969ZM12.7097 16.7172C10.8621 16.575 9.40028 15.0312 9.40028 13.1422C9.40028 11.2531 10.8621 9.68906 12.7097 9.54687V16.7172ZM13.2782 9.54687C15.1257 9.68906 16.5875 11.2328 16.5875 13.1219C16.5875 15.0109 15.1257 16.5547 13.2782 16.6969V9.54687ZM25.1554 20.0484C25.1554 20.3531 24.9118 20.5969 24.6072 20.5969H13.2782V17.2656C15.4303 17.1234 17.156 15.3359 17.156 13.1219C17.156 10.9281 15.4506 9.12031 13.2782 8.97812V5.40312H24.6072C24.9118 5.40312 25.1554 5.64687 25.1554 5.95156V20.0484Z" fill="white"/>
</svg>
